# xmcd
#
# Track frame offsets:
#	150
#	25633
#	46482
#	77099
#	119155
#	134492
#	170924
#
# Disc length: 3325 seconds
#
# Revision: 0
# Processed by: cddbd v1.4PL0 Copyright (c) Steve Scherf et al.
# Submitted via: audiograbber 1.81.02
#
DISCID=610cfb07
DTITLE=Allman Brothers - 6/9/73, RFK Stadium, Washington D.C. - Disc 1
DYEAR=1900
DGENRE=
TTITLE0=Wasted Words
TTITLE1=Done Somebody Wrong 
TTITLE2=One Way Out
TTITLE3=Stormy Monday
TTITLE4=Midnight Rider
TTITLE5=Ramblin' Man
TTITLE6=In Memory Of Elizabeth Reed
EXTD=
EXTT0=
EXTT1=
EXTT2=
EXTT3=
EXTT4=
EXTT5=
EXTT6=
PLAYORDER=
